<svg xmlns="http://www.w3.org/2000/svg" viewBox="0 0 1200 680" role="img" aria-label="Medical AI dashboard for pneumonia detection">
  <defs>
    <linearGradient id="bg" x1="0" y1="0" x2="1" y2="1">
      <stop offset="0" stop-color="#e0f7ff"/>
      <stop offset="0.52" stop-color="#dff3ff"/>
      <stop offset="1" stop-color="#ccfbf1"/>
    </linearGradient>
    <linearGradient id="cyan" x1="0" y1="0" x2="1" y2="1">
      <stop offset="0" stop-color="#31e8ff"/>
      <stop offset="1" stop-color="#7c3aed"/>
    </linearGradient>
  </defs>
  <rect width="1200" height="680" fill="url(#bg)"/>
  <g opacity=".34" stroke="#0e7490">
    <path d="M0 95h1200M0 190h1200M0 285h1200M0 380h1200M0 475h1200M0 570h1200"/>
    <path d="M110 0v680M220 0v680M330 0v680M440 0v680M550 0v680M660 0v680M770 0v680M880 0v680M990 0v680M1100 0v680"/>
  </g>
  <text x="78" y="92" fill="#083344" font-family="Arial, sans-serif" font-size="38" font-weight="800">Pneumonia Detection AI</text>
  <text x="78" y="132" fill="#155e75" font-family="Arial, sans-serif" font-size="22">CNN classification dashboard - NORMAL vs PNEUMONIA</text>
  <rect x="78" y="180" width="450" height="410" rx="28" fill="#f8fdff" stroke="#67e8f9"/>
  <rect x="118" y="220" width="370" height="330" rx="18" fill="#d8f3ff"/>
  <g fill="none" stroke="#274760" stroke-width="5" stroke-linecap="round" stroke-linejoin="round">
    <path d="M303 252c-8 30-7 64 0 92v156"/>
    <path d="M276 286c-55 18-104 77-116 148-10 58 1 118 27 130 29 14 72-26 95-78 24-53 26-111 21-142"/>
    <path d="M330 286c55 18 104 77 116 148 10 58-1 118-27 130-29 14-72-26-95-78-24-53-26-111-21-142"/>
    <path d="M238 342c-52 10-93 48-106 103"/>
    <path d="M368 342c52 10 93 48 106 103"/>
    <path d="M212 294c24 18 54 18 72 4"/>
    <path d="M394 294c-24 18-54 18-72 4"/>
  </g>
  <path d="M185 407c42-19 79-21 111 7-18 32-50 56-94 74-22-18-28-49-17-81z" fill="#2f6f95" opacity=".9"/>
  <path d="M334 405c42-22 77-19 105 8 10 35-4 63-31 81-41-16-67-45-74-89z" fill="#f3d59b" opacity=".95"/>
  <path d="M193 487c47-14 76-10 95 17-17 35-47 55-89 58-28-17-30-44-6-75z" fill="#f4a261" opacity=".9"/>
  <path d="M336 504c47-16 78-10 94 17-20 33-51 51-91 49-22-18-23-41-3-66z" fill="#2f6f95" opacity=".88"/>
  <path d="M205 350c24-28 55-35 90-23-10 36-32 61-68 75-20-8-28-24-22-52z" fill="#f47c2c" opacity=".92"/>
  <path d="M333 330c36-18 67-10 93 20 0 25-13 43-39 53-32-15-50-39-54-73z" fill="#f3d59b" opacity=".95"/>
  <path d="M304 263c16 14 21 31 12 52 18 10 21 28 4 43 18 16 16 35-4 47 14 16 10 34-12 49" fill="none" stroke="#f47c2c" stroke-width="6" stroke-linecap="round"/>
  <circle cx="190" cy="256" r="10" fill="none" stroke="#274760" stroke-width="5"/>
  <circle cx="455" cy="286" r="9" fill="none" stroke="#f47c2c" stroke-width="5"/>
  <circle cx="470" cy="500" r="10" fill="none" stroke="#274760" stroke-width="5"/>
  <circle cx="244" cy="522" r="15" fill="#f47c2c" opacity=".85"/>
  <circle cx="227" cy="368" r="11" fill="#2f6f95"/>
  <circle cx="382" cy="367" r="11" fill="#2f6f95"/>
  <path d="M169 548c25 0 42-11 51-32M435 548c-25 0-42-11-51-32" stroke="#274760" stroke-width="4" fill="none" stroke-linecap="round"/>
  <text x="595" y="220" fill="#0e7490" font-family="Arial, sans-serif" font-size="24" font-weight="700">Model Output</text>
  <rect x="595" y="255" width="495" height="82" rx="18" fill="#ffffff" stroke="#99f6e4"/>
  <text x="625" y="307" fill="#083344" font-family="Arial, sans-serif" font-size="34" font-weight="800">PNEUMONIA</text>
  <text x="930" y="307" fill="#34d399" font-family="Arial, sans-serif" font-size="34" font-weight="800">94.8%</text>
  <rect x="595" y="375" width="210" height="145" rx="18" fill="#ffffff" stroke="#99f6e4"/>
  <rect x="835" y="375" width="255" height="145" rx="18" fill="#ffffff" stroke="#99f6e4"/>
  <text x="625" y="425" fill="#155e75" font-family="Arial, sans-serif" font-size="20">Recall</text>
  <text x="625" y="478" fill="#083344" font-family="Arial, sans-serif" font-size="42" font-weight="800">0.91</text>
  <text x="865" y="425" fill="#155e75" font-family="Arial, sans-serif" font-size="20">F1-score</text>
  <text x="865" y="478" fill="#083344" font-family="Arial, sans-serif" font-size="42" font-weight="800">0.93</text>
  <rect x="595" y="552" width="495" height="18" rx="9" fill="#1f2937"/>
  <rect x="595" y="552" width="422" height="18" rx="9" fill="url(#cyan)"/>
</svg>
